<?xml version="1.0" encoding="UTF-8" standalone="no"?>
<!DOCTYPE svg PUBLIC "-//W3C//DTD SVG 1.0//EN" "http://www.w3.org/TR/2001/REC-SVG-20010904/DTD/svg10.dtd">
<!-- Создано Microsoft Visio 11.0, Экспорт SVG, версия 1.0 Документ1.svg Page-1 -->
<svg xmlns="http://www.w3.org/2000/svg" xmlns:v="http://schemas.microsoft.com/visio/2003/SVGExtensions/" width="1.24008in"
		height="1.53273in" viewBox="0 0 89.2859 110.357" xml:space="preserve" color-interpolation-filters="sRGB" class="st11">
	<v:documentProperties v:langID="1049" v:metric="true" v:viewMarkup="false"/>

	<style type="text/css">
	<![CDATA[
		.st1 {fill:#ff00ff;fill-opacity:0;stroke:#000000;stroke-linecap:round;stroke-linejoin:round;stroke-opacity:0;stroke-width:0.72}
		.st2 {fill:url(#grad30-7);stroke:#ffffff;stroke-linecap:round;stroke-linejoin:round;stroke-width:0.72}
		.st3 {fill:url(#grad31-11);stroke:#ffffff;stroke-linecap:round;stroke-linejoin:round;stroke-width:0.72}
		.st4 {fill:url(#grad32-20);stroke:#000000;stroke-linecap:round;stroke-linejoin:round;stroke-width:0.72}
		.st5 {stroke:#000000;stroke-linecap:round;stroke-linejoin:round;stroke-width:1.5}
		.st6 {stroke:#ffffff;stroke-linecap:round;stroke-linejoin:round;stroke-width:0.72}
		.st7 {fill:#ffffff;stroke:none;stroke-linecap:round;stroke-linejoin:round;stroke-width:0.24}
		.st8 {fill:#969696;stroke:none;stroke-linecap:round;stroke-linejoin:round;stroke-width:0.24}
		.st9 {fill:url(#grad35-50)}
		.st10 {stroke:#000000;stroke-linecap:round;stroke-linejoin:round;stroke-width:0.72}
		.st11 {fill:none;fill-rule:evenodd;font-size:12;overflow:visible;stroke-linecap:square;stroke-miterlimit:3}
	]]>
	</style>

	<defs id="Patterns_And_Gradients">
		<linearGradient id="grad30-7" v:fillPattern="30" v:foreground="#ffffff" v:background="#dfdfdf" x1="0" y1="1" x2="0" y2="0">
			<stop offset="0" style="stop-color:#ffffff;stop-opacity:1"/>
			<stop offset="1" style="stop-color:#dfdfdf;stop-opacity:1"/>
		</linearGradient>
		<pattern id="grad31-11" v:fillPattern="31" v:foreground="#ffffff" v:background="#a7a7a7" x="0" y="0" width="1" height="1"
				patternContentUnits="objectBoundingBox">
			<path d="M 0 0 L 0 1 L 1 1 z" style="fill:url(#grad28-12)"/>
			<path d="M 0 0 L 1 0 L 1 1 z" style="fill:url(#grad25-13)"/>
		</pattern>
		<linearGradient id="grad28-12" v:fillPattern="31" v:foreground="#ffffff" v:background="#a7a7a7" x1="0" y1="0" x2="0" y2="1">
			<stop offset="0" style="stop-color:#ffffff;stop-opacity:1"/>
			<stop offset="1" style="stop-color:#a7a7a7;stop-opacity:1"/>
		</linearGradient>
		<linearGradient id="grad25-13" v:fillPattern="31" v:foreground="#ffffff" v:background="#a7a7a7" x1="0" y1="0" x2="1" y2="0">
			<stop offset="0" style="stop-color:#ffffff;stop-opacity:1"/>
			<stop offset="1" style="stop-color:#a7a7a7;stop-opacity:1"/>
		</linearGradient>
		<pattern id="grad32-20" v:fillPattern="32" v:foreground="#ffffff" v:background="#c0c0c0" x="0" y="0" width="1" height="1"
				patternContentUnits="objectBoundingBox">
			<path d="M 0 1 L 0 0 L 1 0 z" style="fill:url(#grad27-21)"/>
			<path d="M 0 1 L 1 1 L 1 0 z" style="fill:url(#grad28-22)"/>
		</pattern>
		<linearGradient id="grad27-21" v:fillPattern="32" v:foreground="#ffffff" v:background="#c0c0c0" x1="1" y1="0" x2="0" y2="0">
			<stop offset="0" style="stop-color:#ffffff;stop-opacity:1"/>
			<stop offset="1" style="stop-color:#c0c0c0;stop-opacity:1"/>
		</linearGradient>
		<linearGradient id="grad28-22" v:fillPattern="32" v:foreground="#ffffff" v:background="#c0c0c0" x1="0" y1="0" x2="0" y2="1">
			<stop offset="0" style="stop-color:#ffffff;stop-opacity:1"/>
			<stop offset="1" style="stop-color:#c0c0c0;stop-opacity:1"/>
		</linearGradient>
		<pattern id="grad35-50" v:fillPattern="35" v:foreground="#ffffff" v:background="#c6d1e3" x="0" y="0" width="1" height="1"
				patternContentUnits="objectBoundingBox">
			<path d="M 0.5 0.5 L 0 0 L 0 1 z" style="fill:url(#grad27-51)"/>
			<path d="M 0.5 0.5 L 1 0 L 1 1 z" style="fill:url(#grad25-52)"/>
			<path d="M 0.5 0.5 L 0 0 L 1 0 z" style="fill:url(#grad30-53)"/>
			<path d="M 0.5 0.5 L 0 1 L 1 1 z" style="fill:url(#grad28-54)"/>
		</pattern>
		<linearGradient id="grad27-51" v:fillPattern="35" v:foreground="#ffffff" v:background="#c6d1e3" x1="1" y1="0" x2="0" y2="0">
			<stop offset="0" style="stop-color:#ffffff;stop-opacity:1"/>
			<stop offset="1" style="stop-color:#c6d1e3;stop-opacity:1"/>
		</linearGradient>
		<linearGradient id="grad25-52" v:fillPattern="35" v:foreground="#ffffff" v:background="#c6d1e3" x1="0" y1="0" x2="1" y2="0">
			<stop offset="0" style="stop-color:#ffffff;stop-opacity:1"/>
			<stop offset="1" style="stop-color:#c6d1e3;stop-opacity:1"/>
		</linearGradient>
		<linearGradient id="grad30-53" v:fillPattern="35" v:foreground="#ffffff" v:background="#c6d1e3" x1="0" y1="1" x2="0" y2="0">
			<stop offset="0" style="stop-color:#ffffff;stop-opacity:1"/>
			<stop offset="1" style="stop-color:#c6d1e3;stop-opacity:1"/>
		</linearGradient>
		<linearGradient id="grad28-54" v:fillPattern="35" v:foreground="#ffffff" v:background="#c6d1e3" x1="0" y1="0" x2="0" y2="1">
			<stop offset="0" style="stop-color:#ffffff;stop-opacity:1"/>
			<stop offset="1" style="stop-color:#c6d1e3;stop-opacity:1"/>
		</linearGradient>
	</defs>
	<g v:mID="0" v:index="1" v:groupContext="foregroundPage">
		<title>Page-1</title>
		<v:pageProperties v:drawingScale="0.0393701" v:pageScale="0.0393701" v:drawingUnits="24" v:shadowOffsetX="8.50394"
				v:shadowOffsetY="-8.50394"/>
		<g id="group1-1" transform="translate(1.5,-22.4)" v:mID="1" v:groupContext="group">
			<v:custProps>
				<v:cp v:nameU="ShapeClass" v:lbl="ShapeClass" v:type="0" v:invis="true" v:ask="false" v:langID="1049"
						v:val="VT4(Оборудование)"/>
				<v:cp v:nameU="ShapeType" v:lbl="ShapeType" v:type="0" v:invis="true" v:ask="false" v:langID="1049"
						v:val="VT4(Компьютер)"/>
				<v:cp v:nameU="SubShapeType" v:lbl="SubShapeType" v:type="0" v:invis="true" v:ask="false" v:langID="1049"
						v:val="VT4(Macintosh)"/>
				<v:cp v:nameU="Manufacturer" v:lbl="Изготовитель" v:type="0" v:sortKey="Equipment" v:invis="false" v:ask="false"
						v:langID="1049"/>
				<v:cp v:nameU="ProductNumber" v:lbl="Номер товара" v:type="0" v:sortKey="Equipment" v:invis="false" v:ask="false"
						v:langID="1049"/>
				<v:cp v:nameU="PartNumber" v:lbl="Код позиции" v:type="0" v:sortKey="Equipment" v:invis="false" v:ask="false"
						v:langID="1049"/>
				<v:cp v:nameU="ProductDescription" v:lbl="Описание товара" v:type="0" v:sortKey="Equipment" v:invis="false"
						v:ask="false" v:langID="1049"/>
				<v:cp v:nameU="AssetNumber" v:lbl="Инвентарный номер" v:type="0" v:sortKey="Asset" v:invis="false" v:ask="false"
						v:langID="1049"/>
				<v:cp v:nameU="SerialNumber" v:lbl="Серийный номер" v:type="0" v:sortKey="Asset" v:invis="false" v:ask="false"
						v:langID="1049"/>
				<v:cp v:nameU="Location" v:lbl="Расположение" v:type="0" v:sortKey="Asset" v:invis="false" v:ask="false"
						v:langID="1049"/>
				<v:cp v:nameU="Building" v:lbl="Здание" v:type="0" v:sortKey="Asset" v:invis="false" v:ask="false" v:langID="1049"/>
				<v:cp v:nameU="Room" v:lbl="Комната" v:type="0" v:sortKey="Asset" v:invis="false" v:ask="false" v:langID="1049"/>
				<v:cp v:nameU="NetworkName" v:lbl="Сетевое имя" v:type="0" v:sortKey="Network" v:invis="false" v:ask="false"
						v:langID="1049"/>
				<v:cp v:nameU="IPAddress" v:lbl="IP-адрес" v:type="0" v:sortKey="Network" v:invis="false" v:ask="false"
						v:langID="1049"/>
				<v:cp v:nameU="SubnetMask" v:lbl="Маска подсети" v:type="0" v:sortKey="Network" v:invis="false" v:ask="false"
						v:langID="1049"/>
				<v:cp v:nameU="AdminInterface" v:lbl="Интерфейс администратора" v:type="0" v:sortKey="Network" v:invis="false"
						v:ask="false" v:langID="1049"/>
				<v:cp v:nameU="NumberofPorts" v:lbl="Число портов" v:type="0" v:sortKey="Network" v:invis="false" v:ask="false"
						v:langID="1049"/>
				<v:cp v:nameU="MACAddress" v:lbl="MAC-адрес" v:type="0" v:sortKey="Network" v:invis="false" v:ask="false"
						v:langID="1049"/>
				<v:cp v:nameU="CommunityString" v:lbl="Строка сообщества" v:type="0" v:sortKey="Network" v:invis="false"
						v:ask="false" v:langID="1049"/>
				<v:cp v:nameU="NetworkDescription" v:lbl="Сетевое описание" v:type="0" v:sortKey="Network" v:invis="false"
						v:ask="false" v:langID="1049"/>
				<v:cp v:nameU="HardDriveSize" v:lbl="Емкость жесткого диска" v:type="0" v:sortKey="Workstation" v:invis="false"
						v:ask="false" v:langID="1049"/>
				<v:cp v:nameU="CPU" v:lbl="ЦП" v:type="0" v:sortKey="Workstation" v:invis="false" v:ask="false" v:langID="1049"/>
				<v:cp v:nameU="Memory" v:lbl="Память" v:type="0" v:sortKey="Workstation" v:invis="false" v:ask="false"
						v:langID="1049"/>
				<v:cp v:nameU="OperatingSystem" v:lbl="Операционная система" v:type="0" v:sortKey="Workstation" v:invis="false"
						v:ask="false" v:langID="1049"/>
			</v:custProps>
			<v:userDefs>
				<v:ud v:nameU="HasText" v:val="VT0(0):5"/>
				<v:ud v:nameU="ShapeClass" v:val="VT0(5):26"/>
				<v:ud v:nameU="ShapeType" v:val="VT0(6):26"/>
				<v:ud v:nameU="SubShapeType" v:val="VT0(40):26"/>
				<v:ud v:nameU="SolSH" v:val="VT14({BF0433D9-CD73-4EB5-8390-8653BE590246}):41"/>
				<v:ud v:nameU="visLegendShape" v:val="VT0(2):26"/>
				<v:ud v:nameU="visVersion" v:prompt="" v:val="VT0(12):26"/>
			</v:userDefs>
			<title>Новый компьютер iMac</title>
			<g id="shape2-2" v:mID="2" v:groupContext="shape">
				<title>Лист.2</title>
				<path d="M34.58 110.36 L49.71 101.71 L49.71 97.39 L14.7 77.33 L0 87.88 L0 90.47 L34.58 110.36 Z M36.74 26.65 L36.74
							 65.97 A105.96 99.5319 -178.38 0 0 48.51 74.98 A20.0133 18.7992 -180 0 0 46.55 85.37 A22.832 21.4469
							 -180 0 0 85.6 88.75 A20.0133 18.7992 -180 0 0 86.34 81.26 A20.0133 18.7992 -180 0 0 78.17 68.08 L78.18
							 45.08 A96.1607 90.3271 -178.53 0 0 41.5 23.9 L36.74 26.65 A93.5012 87.829 1.25 0 1 73.49 47.76 A99.2814
							 93.2585 -178.75 0 0 36.74 26.65 Z" class="st1"/>
			</g>
			<g id="shape3-4" v:mID="3" v:groupContext="shape" transform="translate(46.4301,-12.7905)">
				<title>Лист.3</title>
				<path d="M39.91 94.05 A20.0133 18.7992 -180 1 0 0.12 98.16 A22.832 21.4469 -180 0 0 39.17 101.54 A20.0133 18.7992
							 -180 0 0 39.91 94.05 Z" class="st2"/>
			</g>
			<g id="shape4-8" v:mID="4" v:groupContext="shape" transform="translate(73.4882,-23.1704)">
				<title>Лист.4</title>
				<path d="M0 110.36 L4.67 107.68 L4.69 68.25 L0 70.93 L0 110.36 Z" class="st3"/>
			</g>
			<g id="shape5-14" v:mID="5" v:groupContext="shape" transform="translate(36.7414,-62.5946)">
				<title>Лист.5</title>
				<path d="M-0 89.24 A93.5012 87.829 1.25 0 1 36.75 110.36 L41.44 107.67 A96.1607 90.3271 -178.53 0 0 4.76 86.49 L0
							 89.24 Z" class="st2"/>
			</g>
			<g id="shape6-17" v:mID="6" v:groupContext="shape" transform="translate(36.7414,-23.1704)">
				<title>Лист.6</title>
				<path d="M-0 89.14 A105.96 99.5319 -178.38 0 0 36.75 110.36 L36.75 70.93 A99.2814 93.2585 -178.75 0 0 0 49.82 L0
							 89.14 Z" class="st4"/>
			</g>
			<g id="shape7-23" v:mID="7" v:groupContext="shape" transform="translate(36.7414,-12.8209)">
				<title>Лист.7</title>
				<path d="M0 78.79 A132.009 124.001 -176.15 0 0 11.38 87.85 A27.9609 26.2646 -180 0 0 10.04 98.14 A22.5992 21.2282
							 -180 0 0 48.83 101.54 A20.9717 19.6995 -1.65 0 0 41.43 80.9 L41.44 57.9 A96.1623 90.3286 -178.54 0 0
							 4.76 36.72 L0 39.47 L0 78.79" class="st5"/>
			</g>
			<g id="shape8-26" v:mID="8" v:groupContext="shape" transform="translate(40.2888,-27.8546)">
				<title>Лист.8</title>
				<path d="M0 59.36 L0 93.08 L29.74 110.36" class="st6"/>
			</g>
			<g id="shape9-30" v:mID="9" v:groupContext="shape" transform="translate(0,-2.5937)">
				<title>Лист.9</title>
				<path d="M0 90.47 L14.7 79.92 L49.71 99.98 L34.58 110.36 L0 90.47 Z" class="st2"/>
			</g>
			<g id="shape10-33" v:mID="10" v:groupContext="shape" transform="translate(34.5827,0)">
				<title>Лист.10</title>
				<path d="M0 110.36 L0 107.76 L15.13 97.39 L15.13 101.71 L0 110.36 Z" class="st3"/>
			</g>
			<g id="group11-36" transform="translate(4.32283,-5.22665)" v:mID="11" v:groupContext="group">
				<title>Лист.11</title>
				<g id="shape12-37" v:mID="12" v:groupContext="shape" transform="translate(0,-0.5626)">
					<title>Лист.12</title>
					<path d="M0 93.09 L2.43 94.49 L4.46 93.2 L2.03 91.79 L0 93.09 Z M3.01 91.12 L5.45 92.52 L7.48 91.23 L5.04 89.82
								 L3.01 91.12 Z M6.03 89.15 L8.46 90.56 L10.49 89.26 L8.06 87.86 L6.03 89.15 Z M9.04 87.18 L11.48
								 88.59 L13.51 87.29 L11.07 85.89 L9.04 87.18 Z M13.56 89.82 L16 91.23 L18.03 89.94 L15.59 88.53 L13.56
								 89.82 Z M18.09 92.47 L20.52 93.87 L22.55 92.58 L20.11 91.17 L18.09 92.47 Z M22.61 95.11 L25.04 96.52
								 L27.07 95.22 L24.64 93.82 L22.61 95.11 Z M31.65 100.4 L34.08 101.81 L36.11 100.51 L33.68 99.11 L31.65
								 100.4 Z M36.17 103.04 L38.61 104.45 L40.63 103.16 L38.2 101.75 L36.17 103.04 Z M33.16 105.01 L35.59
								 106.42 L37.62 105.12 L35.19 103.72 L33.16 105.01 Z M28.64 102.37 L31.07 103.77 L33.1 102.48 L30.66
								 101.07 L28.64 102.37 Z M27.13 97.76 L29.56 99.16 L31.59 97.87 L29.16 96.46 L27.13 97.76 Z M24.11
								 99.72 L26.55 101.13 L28.58 99.84 L26.14 98.43 L24.11 99.72 Z M19.59 97.08 L22.03 98.49 L24.06 97.19
								 L21.62 95.79 L19.59 97.08 Z M15.07 94.44 L17.51 95.84 L19.53 94.55 L17.1 93.14 L15.07 94.44 Z M10.55
								 91.79 L12.98 93.2 L15.01 91.91 L12.58 90.5 L10.55 91.79 Z M7.54 93.76 L9.97 95.17 L12 93.87 L9.56
								 92.47 L7.54 93.76 Z M12.06 96.41 L14.49 97.81 L16.52 96.52 L14.09 95.11 L12.06 96.41 Z M16.58 99.05
								 L19.01 100.46 L21.04 99.16 L18.61 97.76 L16.58 99.05 Z M21.1 101.69 L23.53 103.1 L25.56 101.81 L23.13
								 100.4 L21.1 101.69 Z M25.62 104.34 L28.06 105.74 L30.08 104.45 L27.65 103.04 L25.62 104.34 Z M30.14
								 106.98 L32.58 108.39 L34.61 107.09 L32.17 105.69 L30.14 106.98 Z M27.13 108.95 L29.56 110.36 L31.59
								 109.06 L29.16 107.66 L27.13 108.95 Z M22.61 106.31 L25.04 107.71 L27.07 106.42 L24.64 105.01 L22.61
								 106.31 Z M9.04 98.38 L20.52 105.07 L22.55 103.78 L11.07 97.08 L9.04 98.38 Z M4.52 95.73 L6.96 97.14
								 L8.98 95.84 L6.55 94.44 L4.52 95.73 Z" class="st7"/>
				</g>
				<g id="shape13-39" v:mID="13" v:groupContext="shape" transform="translate(0.000956288,1.27898E-013)">
					<title>Лист.13</title>
					<path d="M9.04 87.18 L11.48 88.59 L11.48 88.02 L9.04 86.62 L9.04 87.18 Z M13.56 89.82 L16 91.23 L16 90.67 L13.56
								 89.26 L13.56 89.82 Z M18.09 92.47 L20.52 93.87 L20.52 93.31 L18.09 91.9 L18.09 92.47 Z M22.61 95.11
								 L25.04 96.52 L25.04 95.96 L22.61 94.55 L22.61 95.11 Z M27.13 97.75 L29.56 99.16 L29.56 98.6 L27.13
								 97.19 L27.13 97.75 Z M31.65 100.4 L34.08 101.81 L34.08 101.24 L31.65 99.84 L31.65 100.4 Z M11.48
								 88.02 L11.48 88.58 L13.51 87.29 L13.51 86.73 L11.48 88.02 Z M16 90.67 L16 91.23 L18.03 89.93 L18.03
								 89.37 L16 90.67 Z M20.52 93.31 L20.52 93.87 L22.55 92.58 L22.55 92.02 L20.52 93.31 Z M25.04 95.95
								 L25.04 96.52 L27.07 95.22 L27.07 94.66 L25.04 95.95 Z M29.56 98.6 L29.56 99.16 L31.59 97.87 L31.59
								 97.3 L29.56 98.6 Z M34.08 101.24 L34.08 101.8 L36.11 100.51 L36.11 99.95 L34.08 101.24 Z M36.17
								 103.04 L38.6 104.45 L38.6 103.89 L36.17 102.48 L36.17 103.04 Z M38.6 103.89 L38.6 104.45 L40.63
								 103.16 L40.63 102.59 L38.6 103.89 Z M6.03 89.15 L8.46 90.55 L8.46 89.99 L6.03 88.59 L6.03 89.15
								 Z M10.55 91.79 L12.98 93.2 L12.98 92.64 L10.55 91.23 L10.55 91.79 Z M15.07 94.44 L17.51 95.84 L17.51
								 95.28 L15.07 93.87 L15.07 94.44 Z M19.59 97.08 L22.03 98.49 L22.03 97.92 L19.59 96.52 L19.59 97.08
								 Z M24.11 99.72 L26.55 101.13 L26.55 100.57 L24.11 99.16 L24.11 99.72 Z M28.63 102.37 L31.07 103.78
								 L31.07 103.21 L28.63 101.81 L28.63 102.37 Z M8.46 89.99 L8.46 90.55 L10.49 89.26 L10.49 88.7 L8.46
								 89.99 Z M12.98 92.64 L12.98 93.2 L15.01 91.9 L15.01 91.34 L12.98 92.64 Z M17.51 95.28 L17.51 95.84
								 L19.53 94.55 L19.53 93.99 L17.51 95.28 Z M22.03 97.92 L22.03 98.49 L24.06 97.19 L24.06 96.63 L22.03
								 97.92 Z M26.55 100.57 L26.55 101.13 L28.58 99.84 L28.58 99.27 L26.55 100.57 Z M31.07 103.21 L31.07
								 103.77 L33.1 102.48 L33.1 101.92 L31.07 103.21 Z M33.16 105.01 L35.59 106.42 L35.59 105.86 L33.16
								 104.45 L33.16 105.01 Z M35.59 105.86 L35.59 106.42 L37.62 105.12 L37.62 104.56 L35.59 105.86 Z M3.01
								 91.12 L5.45 92.52 L5.45 91.96 L3.01 90.55 L3.01 91.12 Z M7.54 93.76 L9.97 95.17 L9.97 94.61 L7.54
								 93.2 L7.54 93.76 Z M12.06 96.41 L14.49 97.81 L14.49 97.25 L12.06 95.84 L12.06 96.41 Z M16.58 99.05
								 L19.01 100.46 L19.01 99.89 L16.58 98.49 L16.58 99.05 Z M21.1 101.69 L23.53 103.1 L23.53 102.54 L21.1
								 101.13 L21.1 101.69 Z M25.62 104.34 L28.05 105.74 L28.05 105.18 L25.62 103.77 L25.62 104.34 Z M5.45
								 91.96 L5.45 92.52 L7.48 91.23 L7.48 90.67 L5.45 91.96 Z M9.97 94.6 L9.97 95.17 L12 93.87 L12 93.31
								 L9.97 94.6 Z M14.49 97.25 L14.49 97.81 L16.52 96.52 L16.52 95.96 L14.49 97.25 Z M19.01 99.89 L19.01
								 100.46 L21.04 99.16 L21.04 98.6 L19.01 99.89 Z M23.53 102.54 L23.53 103.1 L25.56 101.81 L25.56 101.24
								 L23.53 102.54 Z M28.05 105.18 L28.05 105.74 L30.08 104.45 L30.08 103.89 L28.05 105.18 Z M30.14 106.98
								 L32.58 108.39 L32.58 107.83 L30.14 106.42 L30.14 106.98 Z M32.58 107.82 L32.58 108.39 L34.6 107.09
								 L34.6 106.53 L32.58 107.82 Z M0 93.09 L2.43 94.49 L2.43 93.93 L0 92.52 L0 93.09 Z M4.52 95.73 L6.96
								 97.14 L6.96 96.58 L4.52 95.17 L4.52 95.73 Z M9.04 98.37 L20.52 105.07 L20.52 104.51 L9.04 97.81
								 L9.04 98.37 Z M22.61 106.31 L25.04 107.71 L25.04 107.15 L22.61 105.74 L22.61 106.31 Z M2.43 93.93
								 L2.43 94.49 L4.46 93.2 L4.46 92.64 L2.43 93.93 Z M6.95 96.57 L6.95 97.14 L8.98 95.84 L8.98 95.28
								 L6.95 96.57 Z M20.52 104.51 L20.52 105.07 L22.55 103.77 L22.55 103.21 L20.52 104.51 Z M25.04 107.15
								 L25.04 107.71 L27.07 106.42 L27.07 105.86 L25.04 107.15 Z M27.13 108.95 L29.56 110.36 L29.56 109.79
								 L27.13 108.39 L27.13 108.95 Z M29.56 109.79 L29.56 110.36 L31.59 109.06 L31.59 108.5 L29.56 109.79
								 Z" class="st8"/>
				</g>
			</g>
			<g id="shape14-41" v:mID="14" v:groupContext="shape">
				<title>Лист.14</title>
				<path d="M0 90.47 L34.58 110.36 L34.58 107.76 L0 87.88 L0 90.47 Z" class="st4"/>
			</g>
			<g id="shape15-44" v:mID="15" v:groupContext="shape">
				<title>Лист.15</title>
				<path d="M0 87.88 L14.7 77.33 L49.71 97.39 L49.71 101.71 L34.58 110.36 L0 90.47 L0 87.88" class="st5"/>
			</g>
			<g id="shape16-47" v:mID="16" v:groupContext="shape" transform="translate(40.2888,-27.8546)">
				<title>Лист.16</title>
				<path d="M0.74 92.51 L29.74 109.34 L29.74 76.48 L0.74 59.77 L0.74 92.51 Z" class="st9"/>
				<path d="M0.74 92.51 L29.74 109.34 L29.74 76.48 L0.74 59.77 L0.74 92.51" class="st10"/>
				<path d="M29.74 109.34 L29.74 110.87" class="st10"/>
				<path d="M0.74 59.77 L0 59.36" class="st10"/>
			</g>
		</g>
	</g>
</svg>
