<?xml version="1.0" encoding="UTF-8"?>
<svg xmlns="http://www.w3.org/2000/svg" xmlns:xlink="http://www.w3.org/1999/xlink" width="40pt" height="40pt" viewBox="0 0 40 40" version="1.1">
<g id="surface4885">
<rect x="0" y="0" width="40" height="40" style="fill:rgb(100%,100%,100%);fill-opacity:1;stroke:none;"/>
<path style="fill-rule:evenodd;fill:rgb(78.823531%,78.823531%,71.372551%);fill-opacity:1;stroke-width:0.05;stroke-linecap:butt;stroke-linejoin:miter;stroke:rgb(28.627452%,28.627452%,21.176471%);stroke-opacity:1;stroke-miterlimit:10;" d="M 3.18738 3.016437 L 3.391091 2.826398 L 4.911208 2.826398 L 4.707888 3.016437 L 3.18738 3.016437 " transform="matrix(20,0,0,20,-57.755417,-31.97717)"/>
<path style="fill-rule:evenodd;fill:rgb(71.764708%,71.764708%,61.56863%);fill-opacity:1;stroke-width:0.05;stroke-linecap:butt;stroke-linejoin:miter;stroke:rgb(28.627452%,28.627452%,21.176471%);stroke-opacity:1;stroke-miterlimit:10;" d="M 3.18738 3.016437 L 4.707888 3.016437 L 4.707888 3.301984 L 3.18738 3.301984 L 3.18738 3.016437 " transform="matrix(20,0,0,20,-57.755417,-31.97717)"/>
<path style="fill-rule:evenodd;fill:rgb(47.843137%,47.843137%,35.294119%);fill-opacity:1;stroke-width:0.05;stroke-linecap:butt;stroke-linejoin:miter;stroke:rgb(28.627452%,28.627452%,21.176471%);stroke-opacity:1;stroke-miterlimit:10;" d="M 4.707888 3.301984 L 4.911208 3.099444 L 4.911208 2.826398 L 4.707888 3.016437 L 4.707888 3.301984 " transform="matrix(20,0,0,20,-57.755417,-31.97717)"/>
<path style="fill-rule:evenodd;fill:rgb(0%,0%,0%);fill-opacity:1;stroke-width:0.05;stroke-linecap:butt;stroke-linejoin:miter;stroke:rgb(0%,0%,0%);stroke-opacity:1;stroke-miterlimit:10;" d="M 3.235622 2.980694 L 3.391091 2.826398 L 4.875271 2.826398 L 4.719607 2.980694 L 3.235622 2.980694 " transform="matrix(20,0,0,20,-57.755417,-31.97717)"/>
<path style="fill-rule:evenodd;fill:rgb(78.823531%,78.823531%,71.372551%);fill-opacity:1;stroke-width:0.05;stroke-linecap:butt;stroke-linejoin:miter;stroke:rgb(28.627452%,28.627452%,21.176471%);stroke-opacity:1;stroke-miterlimit:10;" d="M 3.18738 1.754327 L 3.355349 1.60003 L 4.875271 1.60003 L 4.707888 1.754327 L 3.18738 1.754327 " transform="matrix(20,0,0,20,-57.755417,-31.97717)"/>
<path style=" stroke:none;fill-rule:evenodd;fill:rgb(71.764708%,71.764708%,61.56863%);fill-opacity:1;" d="M 5.992188 3.109375 L 36.628906 3.109375 L 36.628906 27.164062 L 5.992188 27.164062 L 5.992188 3.109375 "/>
<path style="fill:none;stroke-width:0.05;stroke-linecap:butt;stroke-linejoin:miter;stroke:rgb(28.627452%,28.627452%,21.176471%);stroke-opacity:1;stroke-miterlimit:10;" d="M 3.18738 1.754327 L 4.719021 1.754327 L 4.719021 2.956476 L 3.18738 2.956476 L 3.18738 1.754327 " transform="matrix(20,0,0,20,-57.755417,-31.97717)"/>
<path style=" stroke:none;fill-rule:evenodd;fill:rgb(100%,100%,100%);fill-opacity:1;" d="M 8.644531 6.207031 L 34.011719 6.207031 L 34.011719 24.785156 L 8.644531 24.785156 L 8.644531 6.207031 "/>
<path style="fill:none;stroke-width:0.05;stroke-linecap:butt;stroke-linejoin:miter;stroke:rgb(28.627452%,28.627452%,21.176471%);stroke-opacity:1;stroke-miterlimit:10;" d="M 3.319997 1.90921 L 4.587966 1.90921 L 4.587966 2.83753 L 3.319997 2.83753 L 3.319997 1.90921 " transform="matrix(20,0,0,20,-57.755417,-31.97717)"/>
<path style="fill-rule:evenodd;fill:rgb(47.843137%,47.843137%,35.294119%);fill-opacity:1;stroke-width:0.05;stroke-linecap:butt;stroke-linejoin:miter;stroke:rgb(28.627452%,28.627452%,21.176471%);stroke-opacity:1;stroke-miterlimit:10;" d="M 4.707888 2.944562 L 4.875271 2.778155 L 4.875271 1.60003 L 4.707888 1.754327 L 4.707888 2.944562 " transform="matrix(20,0,0,20,-57.755417,-31.97717)"/>
<path style=" stroke:none;fill-rule:evenodd;fill:rgb(78.823531%,78.823531%,71.372551%);fill-opacity:1;" d="M 0.0195312 38.824219 L 4.804688 32.878906 L 37.824219 32.878906 L 33.042969 38.824219 L 0.0195312 38.824219 "/>
<path style="fill:none;stroke-width:0.05;stroke-linecap:butt;stroke-linejoin:miter;stroke:rgb(28.627452%,28.627452%,21.176471%);stroke-opacity:1;stroke-miterlimit:10;" d="M 2.890505 3.538116 L 3.128005 3.242804 L 4.778982 3.242804 L 4.539919 3.540069 L 2.890505 3.540069 " transform="matrix(20,0,0,20,-57.755417,-31.97717)"/>
<path style=" stroke:none;fill-rule:evenodd;fill:rgb(47.843137%,47.843137%,35.294119%);fill-opacity:1;" d="M 33.042969 40.023438 L 37.824219 35.015625 L 37.824219 32.878906 L 33.042969 38.824219 L 33.042969 40.023438 "/>
<path style="fill:none;stroke-width:0.05;stroke-linecap:butt;stroke-linejoin:miter;stroke:rgb(28.627452%,28.627452%,21.176471%);stroke-opacity:1;stroke-miterlimit:10;" d="M 4.540896 3.598468 L 4.778982 3.34964 L 4.778982 3.242804 L 4.539919 3.540069 L 4.539919 3.598468 " transform="matrix(20,0,0,20,-57.755417,-31.97717)"/>
<path style=" stroke:none;fill-rule:evenodd;fill:rgb(71.764708%,71.764708%,61.56863%);fill-opacity:1;" d="M 0.0195312 38.824219 L 33.042969 38.824219 L 33.042969 40.023438 L 0.0195312 40.023438 L 0.0195312 38.824219 "/>
<path style="fill:none;stroke-width:0.05;stroke-linecap:butt;stroke-linejoin:miter;stroke:rgb(28.627452%,28.627452%,21.176471%);stroke-opacity:1;stroke-miterlimit:10;" d="M 2.890505 3.540069 L 4.539919 3.540069 L 4.539919 3.598468 " transform="matrix(20,0,0,20,-57.755417,-31.97717)"/>
</g>
</svg>
